<svg width="274" height="76" viewBox="0 0 274 76" fill="none" xmlns="http://www.w3.org/2000/svg">
<mask id="mask0_169_528" style="mask-type:luminance" maskUnits="userSpaceOnUse" x="251" y="0" width="23" height="22">
<path d="M251.224 0H273.224V21.5156H251.224V0Z" fill="white"/>
</mask>
<g mask="url(#mask0_169_528)">
<path d="M273.323 11.125C272.792 -2.80733 253.104 -3.46879 251.672 10.427C251.229 16.526 256.208 21.9947 262.484 21.9635C268.51 21.9739 273.349 16.9843 273.323 11.125ZM252.432 11.5104H252.578L253.542 11.9062C253.802 12.0156 254.104 11.9635 254.318 11.7864L255.885 12.875C255.495 13.6354 256.177 14.5989 257 14.6197C257.037 14.9062 257.188 15.1875 257.427 15.3802H253.37C252.813 14.1979 252.484 12.8906 252.432 11.5104ZM254.594 5.29162L256.01 5.86975L254.021 10.7343H252.729L252.432 10.6145C252.438 10.6041 252.438 10.5885 252.438 10.5729L254.594 5.29162ZM270.349 5.12496L272.516 10.3541C272.521 10.3802 272.521 10.4114 272.521 10.4427L271.083 11.0364L268.974 5.95308C268.974 5.92183 268.958 5.89579 268.938 5.86975L268.88 5.72912C268.88 5.72912 270.349 5.11975 270.349 5.12496ZM268.385 6.55204L270.229 11.0052L268.781 11.927C268.005 11.3489 267.604 11.0468 267.38 10.8906C267.339 10.8333 267.276 10.7864 267.203 10.7604C267.073 10.6666 266.266 10.0937 266.266 10.0937C266.172 10.0312 266.063 10.0104 265.953 10.0364C264.901 10.3229 263.287 9.97392 262.557 8.92704C262.318 8.62496 261.891 8.55204 261.563 8.75516C261.188 8.98433 260.542 9.37496 260.151 9.61454C259.708 9.92704 259.052 9.776 258.745 9.43746C259.458 8.79683 260.375 7.89058 261.047 7.2135L262.078 6.51558C263.193 6.276 264.396 6.45829 265.484 6.66141C266.162 6.76037 266.714 7.19266 267.349 6.95308L268.385 6.55204ZM265.651 5.90621C264.75 5.70829 263.818 5.62496 262.875 5.651V1.10933C264.182 1.41662 265.396 3.25516 266.094 6.02079C265.953 5.97912 265.807 5.94266 265.651 5.90621ZM262.099 1.10933V5.69787C261.75 5.7135 261.052 6.30204 260.755 6.47391C260.125 6.31246 259.484 6.20308 258.839 6.17183C259.526 3.32808 260.76 1.42183 262.099 1.10933ZM259.203 6.97391C259.49 7.00516 259.771 7.05204 260.052 7.10933C259.818 7.35412 259.573 7.60412 259.344 7.82287L258.214 8.86975C257.906 9.15621 257.885 9.63537 258.162 9.93225C259.458 11.276 260.708 10.1875 261.948 9.40621C262.865 10.677 264.698 11.1041 265.953 10.8229C266.943 11.5156 267.271 11.7708 268.526 12.7083C268.682 12.8177 268.708 13.0677 268.589 13.2187C268.469 13.3541 268.318 13.651 268.109 13.6614C267.901 13.7135 267.62 13.3958 267.469 13.2968C267.443 13.276 267.417 13.25 267.385 13.2239L265.912 12.1093C265.505 11.8072 265.042 12.4218 265.443 12.7291L266.901 13.8281C267.068 13.9479 267.109 14.1875 266.974 14.3541L266.745 14.651C266.62 14.8125 266.385 14.8437 266.229 14.7239L264.662 13.4427C264.266 13.125 263.781 13.7239 264.172 14.0468L265.385 15.0312C265.734 15.2968 265.396 15.625 265.208 15.8645C265.083 16.026 264.854 16.0572 264.693 15.9322L263.505 14.9843C263.109 14.6718 262.63 15.276 263.021 15.5885C263.037 15.5937 263.714 16.1458 263.729 16.151C263.88 16.276 263.906 16.526 263.787 16.6822L263.552 16.9843C263.427 17.1458 263.193 17.1718 263.031 17.052L262.469 16.6093C263 16.1354 263.057 15.2968 262.505 14.8177C262.255 14.5677 261.927 14.4114 261.573 14.4322C261.526 14.1354 261.339 13.8593 261.089 13.6666C260.865 13.4687 260.578 13.375 260.297 13.3802C260.255 13.0572 260.068 12.7812 259.807 12.5833C259.604 12.401 259.354 12.3072 259.083 12.2968C259.052 12.026 258.922 11.7708 258.703 11.5729C258.229 11.0729 257.417 11.052 256.958 11.5833L256.359 12.2604L254.703 11.1093L256.552 6.58329L256.979 6.80204C257.594 7.06767 258.505 6.82287 259.203 6.97391ZM259.276 15.9375C259.073 15.802 258.927 15.5312 259.125 15.3333L260.021 14.3177C260.13 14.1197 260.412 14.0989 260.578 14.25C260.766 14.375 260.896 14.6093 260.755 14.8229L259.859 15.8385C259.75 16.0572 259.458 16.1041 259.276 15.9375ZM256.787 13.7552C256.568 13.6041 256.448 13.3333 256.641 13.1093L257.537 12.0937C257.677 11.9375 257.922 11.9218 258.089 12.0625C258.313 12.2239 258.438 12.5 258.172 12.6822L257.276 13.6979C257.182 13.8906 256.938 13.8854 256.787 13.7552ZM259.443 13.8072L258.547 14.8229C258.354 15.0416 258.063 14.9531 257.891 14.7552C257.729 14.625 257.714 14.3645 257.854 14.2083L258.75 13.1979C258.823 13.1145 258.932 13.0677 259.042 13.0677C259.188 13.0572 259.307 13.1666 259.406 13.2604C259.568 13.3958 259.583 13.651 259.443 13.8072ZM260.438 16.3489L261.339 15.3333C261.412 15.25 261.516 15.2031 261.625 15.2031C261.771 15.1927 261.891 15.302 261.99 15.3958C262.151 15.5364 262.167 15.7864 262.026 15.9427L261.13 16.9583C260.99 17.1197 260.745 17.1354 260.583 16.9947C260.365 16.8437 260.245 16.5729 260.438 16.3489ZM259.531 16.8125C259.552 16.8125 259.573 16.8072 259.594 16.8072C259.635 17.0572 259.755 17.2968 259.964 17.4739C260.432 17.9791 261.245 18 261.708 17.4687L261.958 17.1927L262.099 17.302V21.1354C260.859 20.8489 259.708 19.1875 258.995 16.677C259.167 16.7656 259.349 16.8125 259.531 16.8125ZM262.875 21.1354V17.8333C263.328 17.9947 263.849 17.8541 264.162 17.4583L264.396 17.1562C264.495 17.0312 264.563 16.8854 264.599 16.7343C264.75 16.7812 264.906 16.7916 265.057 16.776C265.448 16.7343 265.755 16.4687 265.964 16.1562H266.109C265.417 18.9531 264.198 20.8281 262.875 21.1354ZM267.354 15.1302C267.516 14.9218 267.745 14.6614 267.792 14.401C267.927 14.4375 268.068 14.4479 268.203 14.427C268.651 14.3958 268.958 14.0312 269.203 13.6927C269.474 13.3385 269.505 12.875 269.323 12.5L270.635 11.6666C270.844 11.8229 271.135 11.8541 271.38 11.7552L272.547 11.2708C272.526 12.7395 272.188 14.1302 271.599 15.3802H267.073C267.177 15.3125 267.276 15.2291 267.354 15.1302ZM269.995 4.43225L268.583 5.01558C268.266 5.14058 268.063 5.48954 268.115 5.82808L267.068 6.23433C267.026 6.24996 266.984 6.25516 266.943 6.25516C266.438 4.01037 265.609 2.29162 264.604 1.28641C266.724 1.74475 268.599 2.86975 269.995 4.43225ZM260.37 1.28641C259.38 2.276 258.563 3.95308 258.052 6.14579C257.875 6.151 257.698 6.14579 257.521 6.15621C257.38 6.18225 256.906 5.87496 256.776 5.82287C256.76 5.53641 256.583 5.27079 256.302 5.151L254.891 4.57287C256.151 2.9635 258.229 1.74996 260.37 1.28641ZM253.776 16.1562H258.063C258.573 18.3177 259.385 19.9791 260.365 20.9583C257.552 20.3541 255.177 18.5729 253.776 16.1562ZM264.604 20.9583C265.583 19.9791 266.396 18.3177 266.906 16.1562H271.193C269.792 18.5729 267.417 20.3541 264.604 20.9583Z" fill="#050A30"/>
</g>
<path d="M19.4694 75.2409C16.1465 75.2409 13.3027 74.8138 10.9277 73.9701C8.56315 73.1107 6.62565 71.9648 5.11523 70.5326C3.61523 69.0898 2.51107 67.4857 1.80273 65.7201C1.0944 63.9596 0.740234 62.1732 0.740234 60.3659H9.17773C9.17773 61.7982 9.57357 63.1055 10.3652 64.2826C11.1673 65.4492 12.3444 66.3867 13.8861 67.0951C15.4277 67.793 17.2819 68.1367 19.4486 68.1367C26.2923 68.1367 29.7194 65.8451 29.7194 61.2617C29.7194 59.8346 29.2715 58.6732 28.3861 57.7826C27.5111 56.8815 26.2819 56.1576 24.6986 55.6159C23.1152 55.0638 21.2454 54.5742 19.0944 54.1576C17.5632 53.8555 15.9902 53.4805 14.3652 53.0326C12.7507 52.5742 11.2038 52.0065 9.7194 51.3242C8.24544 50.6471 6.91732 49.8138 5.74023 48.8242C4.57357 47.8242 3.64128 46.6263 2.94857 45.2201C2.26628 43.819 1.92773 42.1576 1.92773 40.2409C1.92773 37.7305 2.5319 35.4805 3.74023 33.4909C4.94857 31.5065 6.82357 29.9284 9.36523 28.7617C11.9173 27.5951 15.1882 27.0117 19.1777 27.0117C23.0111 27.0117 26.209 27.5898 28.7819 28.7409C31.3496 29.8971 33.2819 31.5117 34.5736 33.5951C35.8757 35.6784 36.5319 38.0951 36.5319 40.8451H28.0944C28.0944 39.6523 27.7715 38.569 27.1361 37.5951C26.4954 36.6263 25.5163 35.8555 24.1986 35.2826C22.8757 34.6992 21.1673 34.4076 19.0736 34.4076C17.334 34.4076 15.8965 34.5742 14.7611 34.9076C13.6361 35.2305 12.7454 35.6732 12.0944 36.2409C11.4538 36.7982 11.0007 37.4284 10.7402 38.1367C10.4902 38.8346 10.3652 39.543 10.3652 40.2617C10.3652 42.194 11.3236 43.668 13.2402 44.6784C15.1569 45.694 18.0423 46.5221 21.9069 47.1576C24.0319 47.5326 26.0736 48.0534 28.0319 48.7201C29.9902 49.3867 31.7298 50.2617 33.2611 51.3451C34.8027 52.418 36.0163 53.7617 36.9069 55.3867C37.8079 57.0117 38.2611 58.9805 38.2611 61.2826C38.2611 64.2721 37.4798 66.8034 35.9277 68.8867C34.3861 70.9596 32.2038 72.5326 29.3861 73.6159C26.5788 74.6992 23.2715 75.2409 19.4694 75.2409Z" fill="#004AAD"/>
<path d="M62.2101 74.1991H44.356V28.095H62.106C65.783 28.095 69.1268 28.6471 72.1268 29.7408C75.1372 30.8398 77.7205 32.4075 79.8768 34.4491C82.0435 36.4804 83.6997 38.9023 84.856 41.72C86.0226 44.5273 86.606 47.6575 86.606 51.1158C86.606 54.5741 86.0226 57.72 84.856 60.5533C83.6997 63.3866 82.0487 65.8241 79.8976 67.8658C77.757 69.8971 75.1893 71.4596 72.1893 72.5533C69.1997 73.6523 65.8768 74.1991 62.2101 74.1991ZM52.6476 35.595V66.6783H61.9393C65.2987 66.6783 68.1893 66.0533 70.606 64.8033C73.033 63.5429 74.8872 61.7564 76.1685 59.4491C77.4601 57.1471 78.106 54.4179 78.106 51.2616C78.106 48.1106 77.4705 45.3606 76.2101 43.0116C74.9445 40.6679 73.106 38.845 70.6893 37.5533C68.2726 36.2512 65.3351 35.595 61.8768 35.595H52.6476Z" fill="#004AAD"/>
<path d="M134.017 74.1992H125.1L121.454 65.2826H100.225L96.579 74.1992H87.6624L106.829 28.0742H114.829L134.017 74.1992ZM110.537 40.0742L103.121 58.2409H118.558L111.1 40.0742L110.912 38.9492H110.808L110.537 40.0742Z" fill="#004AAD"/>
<path d="M146.765 74.1991H138.328V28.095H158.223C160.541 28.095 162.682 28.4596 164.64 29.1783C166.598 29.8866 168.286 30.9075 169.703 32.2408C171.13 33.5741 172.244 35.1679 173.036 37.0116C173.828 38.845 174.223 40.8814 174.223 43.1158C174.223 45.2825 173.828 47.2616 173.036 49.0533C172.255 50.8346 171.166 52.3606 169.765 53.6366C168.375 54.9179 166.729 55.8814 164.828 56.5325L175.265 74.1991H165.578L156.453 57.8241C156.161 57.8554 155.869 57.8658 155.578 57.8658C155.286 57.8658 154.979 57.8658 154.661 57.8658H146.765V74.1991ZM146.765 35.6366V50.7408H157.911C159.395 50.7304 160.729 50.4023 161.911 49.7616C163.104 49.1106 164.041 48.2148 164.723 47.0741C165.416 45.9231 165.765 44.6054 165.765 43.1158C165.765 41.7148 165.416 40.4491 164.723 39.3241C164.026 38.1991 163.083 37.3033 161.89 36.6366C160.708 35.97 159.369 35.6366 157.869 35.6366H146.765Z" fill="#004AAD"/>
<path d="M209.938 74.1991H180.688V28.095H189.125V66.6366H209.938V74.1991Z" fill="#004AAD"/>
<path d="M236.836 74.1991H228.399V56.6783L210.253 28.095H220.086L232.628 49.1575H232.669L245.107 28.095H255.044L236.836 56.6158V74.1991Z" fill="#004AAD"/>
</svg>
